<svg width="28" height="29" viewBox="0 0 28 29" fill="none" xmlns="http://www.w3.org/2000/svg">
<path d="M18.1667 27.5V16.5529C18.1667 16.19 18.0203 15.8419 17.7599 15.5853C17.4994 15.3287 17.1461 15.1845 16.7778 15.1845H11.2222C10.8539 15.1845 10.5006 15.3287 10.2401 15.5853C9.97966 15.8419 9.83333 16.19 9.83333 16.5529V27.5M1.5 12.4477C1.4999 12.0496 1.58796 11.6563 1.75804 11.2952C1.92811 10.9341 2.17611 10.6138 2.48472 10.3569L12.2069 2.14653C12.7083 1.72905 13.3436 1.5 14 1.5C14.6564 1.5 15.2917 1.72905 15.7931 2.14653L25.5153 10.3569C25.8239 10.6138 26.0719 10.9341 26.242 11.2952C26.412 11.6563 26.5001 12.0496 26.5 12.4477V24.7632C26.5 25.4891 26.2073 26.1852 25.6864 26.6984C25.1655 27.2117 24.4589 27.5 23.7222 27.5H4.27778C3.54107 27.5 2.83453 27.2117 2.31359 26.6984C1.79266 26.1852 1.5 25.4891 1.5 24.7632V12.4477Z" stroke="#FFFBF5" stroke-width="3" stroke-linecap="round" stroke-linejoin="round"/>
</svg>
