<svg width="28" height="28" viewBox="0 0 28 28" fill="none" xmlns="http://www.w3.org/2000/svg">
<path d="M1.5 1.5H3.99501L7.31337 17.0639C7.4351 17.6339 7.75084 18.1435 8.20623 18.5048C8.66162 18.8662 9.22818 19.0568 9.80838 19.0439H22.009C22.5768 19.0429 23.1273 18.8475 23.5696 18.4898C24.0119 18.1321 24.3195 17.6335 24.4416 17.0764L26.5 7.76566H5.32984M10.1702 25.2469C10.1702 25.939 9.61163 26.5 8.92265 26.5C8.23368 26.5 7.67515 25.939 7.67515 25.2469C7.67515 24.5548 8.23368 23.9937 8.92265 23.9937C9.61163 23.9937 10.1702 24.5548 10.1702 25.2469ZM23.8927 25.2469C23.8927 25.939 23.3342 26.5 22.6452 26.5C21.9562 26.5 21.3977 25.939 21.3977 25.2469C21.3977 24.5548 21.9562 23.9937 22.6452 23.9937C23.3342 23.9937 23.8927 24.5548 23.8927 25.2469Z" stroke="#FFFBF5" stroke-width="3" stroke-linecap="round" stroke-linejoin="round"/>
</svg>
