<svg width="28" height="28" viewBox="0 0 28 28" fill="none" xmlns="http://www.w3.org/2000/svg">
<path d="M1.5 1.5V23.7222C1.5 24.4589 1.79266 25.1655 2.31359 25.6864C2.83453 26.2073 3.54107 26.5 4.27778 26.5H26.5M19.5556 4.27778H22.3333C23.1004 4.27778 23.7222 4.8996 23.7222 5.66667V19.5556C23.7222 20.3226 23.1004 20.9444 22.3333 20.9444H19.5556C18.7885 20.9444 18.1667 20.3226 18.1667 19.5556V5.66667C18.1667 4.8996 18.7885 4.27778 19.5556 4.27778ZM8.44444 8.44444H11.2222C11.9893 8.44444 12.6111 9.06627 12.6111 9.83333V19.5556C12.6111 20.3226 11.9893 20.9444 11.2222 20.9444H8.44444C7.67738 20.9444 7.05556 20.3226 7.05556 19.5556V9.83333C7.05556 9.06627 7.67738 8.44444 8.44444 8.44444Z" stroke="#FFFBF5" stroke-width="3" stroke-linecap="round" stroke-linejoin="round"/>
</svg>
